<mxfile host="app.diagrams.net" modified="2024-02-22T00:56:29.905Z" agent="Mozilla/5.0 (Windows NT 10.0; Win64; x64) AppleWebKit/537.36 (KHTML, like Gecko) Chrome/119.0.6045.160 Safari/537.36" version="23.1.5" etag="emk8vJie3VD_kfeo6osH" type="github">
  <diagram name="第 1 页" id="oLKLGBRGeINdCbpYY0TW">
    <mxGraphModel>
      <root>
        <mxCell id="0" />
        <mxCell id="1" parent="0" />
      </root>
    </mxGraphModel>
  </diagram>
</mxfile>
